<svg width="288" height="77" viewBox="0 0 288 77" fill="none" xmlns="http://www.w3.org/2000/svg">
<path d="M116.599 41.2619C114.778 41.2619 113.132 40.9501 111.66 40.3265C110.213 39.7029 109.066 38.8049 108.218 37.6325C107.37 36.4602 106.933 35.0758 106.908 33.4794H112.521C112.595 34.552 112.97 35.4 113.643 36.0237C114.342 36.6473 115.289 36.9591 116.487 36.9591C117.709 36.9591 118.669 36.6722 119.368 36.0985C120.066 35.4998 120.415 34.7266 120.415 33.7787C120.415 33.0054 120.178 32.3693 119.705 31.8705C119.231 31.3716 118.632 30.9849 117.909 30.7106C117.21 30.4112 116.237 30.087 114.99 29.7377C113.294 29.2389 111.91 28.7524 110.837 28.2785C109.789 27.7796 108.879 27.0438 108.106 26.071C107.357 25.0732 106.983 23.7512 106.983 22.1048C106.983 20.5583 107.37 19.2113 108.143 18.0639C108.916 16.9165 110.001 16.0434 111.398 15.4448C112.795 14.8212 114.391 14.5094 116.187 14.5094C118.881 14.5094 121.064 15.1704 122.735 16.4924C124.431 17.7895 125.367 19.6104 125.541 21.9552H119.779C119.729 21.0572 119.343 20.3213 118.619 19.7476C117.921 19.149 116.986 18.8496 115.813 18.8496C114.791 18.8496 113.967 19.1116 113.344 19.6354C112.745 20.1592 112.446 20.92 112.446 21.9178C112.446 22.6162 112.67 23.2024 113.119 23.6763C113.593 24.1253 114.167 24.4995 114.84 24.7988C115.539 25.0732 116.512 25.3975 117.759 25.7716C119.455 26.2705 120.84 26.7694 121.912 27.2683C122.985 27.7672 123.908 28.5155 124.681 29.5132C125.454 30.511 125.841 31.8206 125.841 33.4419C125.841 34.8388 125.479 36.1359 124.756 37.3332C124.032 38.5305 122.972 39.4909 121.575 40.2143C120.178 40.9127 118.52 41.2619 116.599 41.2619ZM142.655 41L135.62 32.1698V41H130.382V13.312H135.62V29.0642L142.58 20.2715H149.39L140.26 30.6731L149.464 41H142.655ZM172.063 20.2715L159.229 50.803H153.654L158.144 40.4762L149.838 20.2715H155.712L161.063 34.7515L166.488 20.2715H172.063ZM184.016 14.8835C186.76 14.8835 189.167 15.4198 191.238 16.4924C193.333 17.565 194.942 19.0991 196.064 21.0946C197.212 23.0652 197.786 25.36 197.786 27.9792C197.786 30.5983 197.212 32.8932 196.064 34.8638C194.942 36.8094 193.333 38.3185 191.238 39.3911C189.167 40.4637 186.76 41 184.016 41H174.887V14.8835H184.016ZM183.829 36.5475C186.573 36.5475 188.693 35.7992 190.19 34.3025C191.687 32.8059 192.435 30.6981 192.435 27.9792C192.435 25.2603 191.687 23.14 190.19 21.6184C188.693 20.0719 186.573 19.2986 183.829 19.2986H180.125V36.5475H183.829ZM206.945 23.4892C207.618 22.3917 208.492 21.5311 209.564 20.9075C210.662 20.2839 211.909 19.9721 213.306 19.9721V25.4723H211.921C210.275 25.4723 209.028 25.8589 208.18 26.6322C207.357 27.4055 206.945 28.7524 206.945 30.6731V41H201.707V20.2715H206.945V23.4892ZM219.49 17.802C218.568 17.802 217.794 17.5151 217.171 16.9414C216.572 16.3428 216.273 15.6069 216.273 14.7339C216.273 13.8608 216.572 13.1374 217.171 12.5637C217.794 11.9651 218.568 11.6657 219.49 11.6657C220.413 11.6657 221.174 11.9651 221.773 12.5637C222.396 13.1374 222.708 13.8608 222.708 14.7339C222.708 15.6069 222.396 16.3428 221.773 16.9414C221.174 17.5151 220.413 17.802 219.49 17.802ZM222.072 20.2715V41H216.834V20.2715H222.072ZM235.891 36.1733L241.129 20.2715H246.704L239.034 41H232.673L225.04 20.2715H230.652L235.891 36.1733ZM268.915 30.1867C268.915 30.9351 268.866 31.6085 268.766 32.2072H253.612C253.737 33.7039 254.261 34.8762 255.184 35.7243C256.107 36.5724 257.242 36.9965 258.589 36.9965C260.534 36.9965 261.919 36.1608 262.742 34.4896H268.392C267.793 36.4851 266.646 38.1314 264.949 39.4285C263.253 40.7007 261.17 41.3367 258.701 41.3367C256.705 41.3367 254.909 40.9002 253.313 40.0272C251.741 39.1292 250.507 37.8695 249.609 36.2481C248.736 34.6268 248.299 32.756 248.299 30.6357C248.299 28.4905 248.736 26.6073 249.609 24.9859C250.482 23.3645 251.704 22.1173 253.276 21.2443C254.847 20.3712 256.655 19.9347 258.701 19.9347C260.671 19.9347 262.43 20.3588 263.977 21.2069C265.548 22.055 266.758 23.2647 267.606 24.8362C268.479 26.3828 268.915 28.1663 268.915 30.1867ZM263.49 28.6901C263.465 27.3431 262.979 26.2705 262.031 25.4723C261.083 24.6491 259.923 24.2376 258.551 24.2376C257.254 24.2376 256.157 24.6367 255.259 25.4349C254.386 26.2081 253.849 27.2932 253.65 28.6901H263.49Z" fill="#FF9EF4"/>
<g opacity="0.45" filter="url(#filter0_d_21_616)">
<path d="M4 42.7444C4 52.2744 10.8684 60 19.3409 60L66.0455 58.8496C73.2001 58.8496 79 52.3258 79 44.2782C79 36.2306 73.2001 29.7068 66.0455 29.7068C65.9355 29.7068 65.8259 29.7083 65.7166 29.7114C64.4054 23.3375 59.3266 18.5865 53.2614 18.5865C52.5742 18.5865 51.8998 18.6474 51.242 18.7648C48.318 12.9358 42.7608 9 36.3864 9C27.782 9 20.6667 16.1711 19.5065 25.4897C19.4514 25.489 19.3962 25.4887 19.3409 25.4887C10.8684 25.4887 4 33.2143 4 42.7444Z" fill="#FFB7F7"/>
<path d="M66.0455 56.3496H66.0147L65.9839 56.3504L19.3117 57.5C12.5002 57.482 6.5 51.1662 6.5 42.7444C6.5 34.3105 12.5174 27.9887 19.3409 27.9887C19.3863 27.9887 19.4316 27.989 19.4768 27.9895L21.7113 28.0161L21.9874 25.7986C23.0228 17.4818 29.2798 11.5 36.3864 11.5C41.6701 11.5 46.4383 14.7643 49.0074 19.8858L49.8442 21.5538L51.6813 21.2259C52.1951 21.1342 52.7226 21.0865 53.2614 21.0865C57.9243 21.0865 62.1494 24.7781 63.2679 30.2151L63.6904 32.2691L65.7866 32.2104C65.8726 32.208 65.9589 32.2068 66.0455 32.2068C71.551 32.2068 76.5 37.3268 76.5 44.2782C76.5 51.2296 71.551 56.3496 66.0455 56.3496Z" stroke="#FFB7F7" stroke-width="5"/>
</g>
<g filter="url(#filter1_d_21_616)">
<path d="M20 33.7444C20 43.2744 26.7768 51 35.1364 51L81.2182 49.8496C88.2774 49.8496 94 43.3258 94 35.2782C94 27.2306 88.2774 20.7068 81.2182 20.7068C81.1097 20.7068 81.0015 20.7083 80.8937 20.7114C79.6 14.3375 74.5889 9.58647 68.6045 9.58647C67.9266 9.58647 67.2611 9.64744 66.6122 9.76484C63.7271 3.93581 58.244 0 51.9545 0C43.4649 0 36.4445 7.17107 35.2998 16.4897C35.2454 16.489 35.1909 16.4887 35.1364 16.4887C26.7768 16.4887 20 24.2143 20 33.7444Z" fill="#FF9EF4"/>
<path d="M81.2182 47.3496H81.187L81.1558 47.3504L35.1068 48.5C28.4376 48.4814 22.5 42.199 22.5 33.7444C22.5 25.2772 28.4552 18.9887 35.1364 18.9887C35.1809 18.9887 35.2253 18.989 35.2696 18.9895L37.5082 19.0165L37.7811 16.7945C38.806 8.45162 44.9889 2.5 51.9545 2.5C57.1352 2.5 61.8331 5.74504 64.3716 10.8738L65.206 12.5598L67.0572 12.2249C67.5604 12.1339 68.0769 12.0865 68.6045 12.0865C73.1623 12.0865 77.3357 15.7503 78.4437 21.2087L78.8621 23.2701L80.9647 23.2104C81.0489 23.208 81.1334 23.2068 81.2182 23.2068C86.599 23.2068 91.5 28.2935 91.5 35.2782C91.5 42.2629 86.599 47.3496 81.2182 47.3496Z" stroke="#FF9EF4" stroke-width="5"/>
</g>
<defs>
<filter id="filter0_d_21_616" x="0" y="9" width="83" height="59" filterUnits="userSpaceOnUse" color-interpolation-filters="sRGB">
<feFlood flood-opacity="0" result="BackgroundImageFix"/>
<feColorMatrix in="SourceAlpha" type="matrix" values="0 0 0 0 0 0 0 0 0 0 0 0 0 0 0 0 0 0 127 0" result="hardAlpha"/>
<feOffset dy="4"/>
<feGaussianBlur stdDeviation="2"/>
<feComposite in2="hardAlpha" operator="out"/>
<feColorMatrix type="matrix" values="0 0 0 0 0 0 0 0 0 0 0 0 0 0 0 0 0 0 0.25 0"/>
<feBlend mode="normal" in2="BackgroundImageFix" result="effect1_dropShadow_21_616"/>
<feBlend mode="normal" in="SourceGraphic" in2="effect1_dropShadow_21_616" result="shape"/>
</filter>
<filter id="filter1_d_21_616" x="16" y="0" width="82" height="59" filterUnits="userSpaceOnUse" color-interpolation-filters="sRGB">
<feFlood flood-opacity="0" result="BackgroundImageFix"/>
<feColorMatrix in="SourceAlpha" type="matrix" values="0 0 0 0 0 0 0 0 0 0 0 0 0 0 0 0 0 0 127 0" result="hardAlpha"/>
<feOffset dy="4"/>
<feGaussianBlur stdDeviation="2"/>
<feComposite in2="hardAlpha" operator="out"/>
<feColorMatrix type="matrix" values="0 0 0 0 0 0 0 0 0 0 0 0 0 0 0 0 0 0 0.25 0"/>
<feBlend mode="normal" in2="BackgroundImageFix" result="effect1_dropShadow_21_616"/>
<feBlend mode="normal" in="SourceGraphic" in2="effect1_dropShadow_21_616" result="shape"/>
</filter>
</defs>
</svg>
