<svg width="291" height="68" viewBox="0 0 291 68" fill="none" xmlns="http://www.w3.org/2000/svg">
<path d="M122.599 50.2619C120.778 50.2619 119.132 49.9501 117.66 49.3265C116.213 48.7029 115.066 47.8049 114.218 46.6325C113.37 45.4602 112.933 44.0758 112.908 42.4794H118.521C118.595 43.552 118.97 44.4 119.643 45.0237C120.342 45.6473 121.289 45.9591 122.487 45.9591C123.709 45.9591 124.669 45.6722 125.368 45.0985C126.066 44.4998 126.415 43.7266 126.415 42.7787C126.415 42.0054 126.178 41.3693 125.705 40.8705C125.231 40.3716 124.632 39.9849 123.909 39.7106C123.21 39.4112 122.237 39.087 120.99 38.7377C119.294 38.2389 117.91 37.7524 116.837 37.2785C115.789 36.7796 114.879 36.0438 114.106 35.071C113.357 34.0732 112.983 32.7512 112.983 31.1048C112.983 29.5583 113.37 28.2113 114.143 27.0639C114.916 25.9165 116.001 25.0434 117.398 24.4448C118.795 23.8212 120.391 23.5094 122.187 23.5094C124.881 23.5094 127.064 24.1704 128.735 25.4924C130.431 26.7895 131.367 28.6104 131.541 30.9552H125.779C125.729 30.0572 125.343 29.3213 124.619 28.7476C123.921 28.149 122.986 27.8496 121.813 27.8496C120.791 27.8496 119.967 28.1116 119.344 28.6354C118.745 29.1592 118.446 29.92 118.446 30.9178C118.446 31.6162 118.67 32.2024 119.119 32.6763C119.593 33.1253 120.167 33.4995 120.84 33.7988C121.539 34.0732 122.512 34.3975 123.759 34.7716C125.455 35.2705 126.84 35.7694 127.912 36.2683C128.985 36.7672 129.908 37.5155 130.681 38.5132C131.454 39.511 131.841 40.8206 131.841 42.4419C131.841 43.8388 131.479 45.1359 130.756 46.3332C130.032 47.5305 128.972 48.4909 127.575 49.2143C126.178 49.9127 124.52 50.2619 122.599 50.2619ZM148.655 50L141.62 41.1698V50H136.382V22.312H141.62V38.0642L148.58 29.2715H155.39L146.26 39.6731L155.464 50H148.655ZM178.063 29.2715L165.229 59.803H159.654L164.144 49.4762L155.838 29.2715H161.712L167.063 43.7515L172.488 29.2715H178.063ZM190.016 23.8835C192.76 23.8835 195.167 24.4198 197.238 25.4924C199.333 26.565 200.942 28.0991 202.064 30.0946C203.212 32.0652 203.786 34.36 203.786 36.9792C203.786 39.5983 203.212 41.8932 202.064 43.8638C200.942 45.8094 199.333 47.3185 197.238 48.3911C195.167 49.4637 192.76 50 190.016 50H180.887V23.8835H190.016ZM189.829 45.5475C192.573 45.5475 194.693 44.7992 196.19 43.3025C197.687 41.8059 198.435 39.6981 198.435 36.9792C198.435 34.2603 197.687 32.14 196.19 30.6184C194.693 29.0719 192.573 28.2986 189.829 28.2986H186.125V45.5475H189.829ZM212.945 32.4892C213.618 31.3917 214.492 30.5311 215.564 29.9075C216.662 29.2839 217.909 28.9721 219.306 28.9721V34.4723H217.921C216.275 34.4723 215.028 34.8589 214.18 35.6322C213.357 36.4055 212.945 37.7524 212.945 39.6731V50H207.707V29.2715H212.945V32.4892ZM225.49 26.802C224.568 26.802 223.794 26.5151 223.171 25.9414C222.572 25.3428 222.273 24.6069 222.273 23.7339C222.273 22.8608 222.572 22.1374 223.171 21.5637C223.794 20.9651 224.568 20.6657 225.49 20.6657C226.413 20.6657 227.174 20.9651 227.773 21.5637C228.396 22.1374 228.708 22.8608 228.708 23.7339C228.708 24.6069 228.396 25.3428 227.773 25.9414C227.174 26.5151 226.413 26.802 225.49 26.802ZM228.072 29.2715V50H222.834V29.2715H228.072ZM241.891 45.1733L247.129 29.2715H252.704L245.034 50H238.673L231.04 29.2715H236.652L241.891 45.1733ZM274.915 39.1867C274.915 39.9351 274.866 40.6085 274.766 41.2072H259.612C259.737 42.7039 260.261 43.8762 261.184 44.7243C262.107 45.5724 263.242 45.9965 264.589 45.9965C266.534 45.9965 267.919 45.1608 268.742 43.4896H274.392C273.793 45.4851 272.646 47.1314 270.949 48.4285C269.253 49.7007 267.17 50.3367 264.701 50.3367C262.705 50.3367 260.909 49.9002 259.313 49.0272C257.741 48.1292 256.507 46.8695 255.609 45.2481C254.736 43.6268 254.299 41.756 254.299 39.6357C254.299 37.4905 254.736 35.6073 255.609 33.9859C256.482 32.3645 257.704 31.1173 259.276 30.2443C260.847 29.3712 262.655 28.9347 264.701 28.9347C266.671 28.9347 268.43 29.3588 269.977 30.2069C271.548 31.055 272.758 32.2647 273.606 33.8362C274.479 35.3828 274.915 37.1663 274.915 39.1867ZM269.49 37.6901C269.465 36.3431 268.979 35.2705 268.031 34.4723C267.083 33.6491 265.923 33.2376 264.551 33.2376C263.254 33.2376 262.157 33.6367 261.259 34.4349C260.386 35.2081 259.849 36.2932 259.65 37.6901H269.49Z" fill="white"/>
<g opacity="0.3" filter="url(#filter0_d_42_2176)">
<path d="M4 42.7444C4 52.2744 10.8684 60 19.3409 60L66.0455 58.8496C73.2001 58.8496 79 52.3258 79 44.2782C79 36.2306 73.2001 29.7068 66.0455 29.7068C65.9355 29.7068 65.8259 29.7083 65.7166 29.7114C64.4054 23.3375 59.3266 18.5865 53.2614 18.5865C52.5742 18.5865 51.8998 18.6474 51.242 18.7648C48.318 12.9358 42.7608 9 36.3864 9C27.782 9 20.6667 16.1711 19.5065 25.4897C19.4514 25.489 19.3962 25.4887 19.3409 25.4887C10.8684 25.4887 4 33.2143 4 42.7444Z" fill="white"/>
<path d="M66.0455 56.3496H66.0147L65.9839 56.3504L19.3117 57.5C12.5002 57.482 6.5 51.1662 6.5 42.7444C6.5 34.3105 12.5174 27.9887 19.3409 27.9887C19.3863 27.9887 19.4316 27.989 19.4768 27.9895L21.7113 28.0161L21.9874 25.7986C23.0228 17.4818 29.2798 11.5 36.3864 11.5C41.6701 11.5 46.4383 14.7643 49.0074 19.8858L49.8442 21.5538L51.6813 21.2259C52.1951 21.1342 52.7226 21.0865 53.2614 21.0865C57.9243 21.0865 62.1494 24.7781 63.2679 30.2151L63.6904 32.2691L65.7866 32.2104C65.8726 32.208 65.9589 32.2068 66.0455 32.2068C71.551 32.2068 76.5 37.3268 76.5 44.2782C76.5 51.2296 71.551 56.3496 66.0455 56.3496Z" stroke="white" stroke-width="5"/>
</g>
<g filter="url(#filter1_d_42_2176)">
<path d="M20 33.7444C20 43.2744 26.7768 51 35.1364 51L81.2182 49.8496C88.2774 49.8496 94 43.3258 94 35.2782C94 27.2306 88.2774 20.7068 81.2182 20.7068C81.1097 20.7068 81.0015 20.7083 80.8937 20.7114C79.6 14.3375 74.5889 9.58647 68.6045 9.58647C67.9266 9.58647 67.2611 9.64744 66.6122 9.76484C63.7271 3.93581 58.244 0 51.9545 0C43.4649 0 36.4445 7.17107 35.2998 16.4897C35.2454 16.489 35.1909 16.4887 35.1364 16.4887C26.7768 16.4887 20 24.2143 20 33.7444Z" fill="white"/>
<path d="M81.2182 47.3496H81.187L81.1558 47.3504L35.1068 48.5C28.4376 48.4814 22.5 42.199 22.5 33.7444C22.5 25.2772 28.4552 18.9887 35.1364 18.9887C35.1809 18.9887 35.2253 18.989 35.2696 18.9895L37.5082 19.0165L37.7811 16.7945C38.806 8.45162 44.9889 2.5 51.9545 2.5C57.1352 2.5 61.8331 5.74504 64.3716 10.8738L65.206 12.5598L67.0572 12.2249C67.5604 12.1339 68.0769 12.0865 68.6045 12.0865C73.1623 12.0865 77.3357 15.7503 78.4437 21.2087L78.8621 23.2701L80.9647 23.2104C81.0489 23.208 81.1334 23.2068 81.2182 23.2068C86.599 23.2068 91.5 28.2935 91.5 35.2782C91.5 42.2629 86.599 47.3496 81.2182 47.3496Z" stroke="white" stroke-width="5"/>
</g>
<defs>
<filter id="filter0_d_42_2176" x="0" y="9" width="83" height="59" filterUnits="userSpaceOnUse" color-interpolation-filters="sRGB">
<feFlood flood-opacity="0" result="BackgroundImageFix"/>
<feColorMatrix in="SourceAlpha" type="matrix" values="0 0 0 0 0 0 0 0 0 0 0 0 0 0 0 0 0 0 127 0" result="hardAlpha"/>
<feOffset dy="4"/>
<feGaussianBlur stdDeviation="2"/>
<feComposite in2="hardAlpha" operator="out"/>
<feColorMatrix type="matrix" values="0 0 0 0 0 0 0 0 0 0 0 0 0 0 0 0 0 0 0.25 0"/>
<feBlend mode="normal" in2="BackgroundImageFix" result="effect1_dropShadow_42_2176"/>
<feBlend mode="normal" in="SourceGraphic" in2="effect1_dropShadow_42_2176" result="shape"/>
</filter>
<filter id="filter1_d_42_2176" x="16" y="0" width="82" height="59" filterUnits="userSpaceOnUse" color-interpolation-filters="sRGB">
<feFlood flood-opacity="0" result="BackgroundImageFix"/>
<feColorMatrix in="SourceAlpha" type="matrix" values="0 0 0 0 0 0 0 0 0 0 0 0 0 0 0 0 0 0 127 0" result="hardAlpha"/>
<feOffset dy="4"/>
<feGaussianBlur stdDeviation="2"/>
<feComposite in2="hardAlpha" operator="out"/>
<feColorMatrix type="matrix" values="0 0 0 0 0 0 0 0 0 0 0 0 0 0 0 0 0 0 0.25 0"/>
<feBlend mode="normal" in2="BackgroundImageFix" result="effect1_dropShadow_42_2176"/>
<feBlend mode="normal" in="SourceGraphic" in2="effect1_dropShadow_42_2176" result="shape"/>
</filter>
</defs>
</svg>
